<?xml version="1.0" encoding="UTF-8"?>
<svg width="368px" height="64px" viewBox="0 0 368 64" version="1.1" xmlns="http://www.w3.org/2000/svg" xmlns:xlink="http://www.w3.org/1999/xlink">
    <!-- Generator: Sketch 54.1 (76490) - https://sketchapp.com -->
    <title>Group 2</title>
    <desc>Created with Sketch.</desc>
    <g id="Page-1" stroke="none" stroke-width="1" fill="none" fill-rule="evenodd">
        <g id="Group-2">
            <rect id="Rectangle" stroke="#EDEDED" stroke-width="0.01" x="0.005" y="0.005" width="367.99" height="63.99"></rect>
            <g id="Group" transform="translate(5.000000, 14.000000)" fill="#FF6FCD" fill-rule="nonzero">
                <path d="M39,35 L39,3 L52.0516854,3 C57.4449438,3 61.7595506,6.94666667 61.7595506,11.96 C61.7595506,14.9466667 60.5191011,16.8133333 58.2539326,18.52 L58.2539326,18.6266667 C61.5977528,20.9733333 63,23.2133333 63,26.52 C63,30.9466667 59.4404494,35 53.2921348,35 L39,35 Z M46.8741573,15.7466667 L50.6494382,15.7466667 C52.4831461,15.7466667 53.7775281,14.52 53.7775281,12.76 C53.7775281,11.1066667 52.4831461,9.82666667 50.6494382,9.82666667 L46.8741573,9.82666667 L46.8741573,15.7466667 Z M46.8741573,28.0133333 L51.6741573,28.0133333 C53.5078652,28.0133333 54.694382,26.9466667 54.694382,25.24 C54.694382,23.6933333 53.5078652,22.4133333 51.6741573,22.4133333 L46.8741573,22.4133333 L46.8741573,28.0133333 Z" id="B"></path>
                <path d="M70,18.5 C70,8.7109375 77.2058824,1 87.5,1 C97.7399381,1 105,8.7109375 105,18.5 C105,28.2890625 97.7399381,36 87.5,36 C77.2058824,36 70,28.2890625 70,18.5 Z M78.0727554,18.5 C78.0727554,24.0234375 81.7027864,28.3984375 87.5,28.3984375 C93.2430341,28.3984375 96.9272446,24.0234375 96.9272446,18.5 C96.9272446,12.9765625 93.2430341,8.6015625 87.5,8.6015625 C81.7027864,8.6015625 78.0727554,12.9765625 78.0727554,18.5 Z" id="O"></path>
                <polygon id="E" points="143 35 143 3 164.406863 3 164.406863 9.93333333 150.926471 9.93333333 150.926471 15.6933333 163.382353 15.6933333 163.382353 22.52 150.926471 22.52 150.926471 28.28 165 28.28 165 35"></polygon>
                <path d="M179.100367,22 L179.100367,7.11666667 L175,7.11666667 L175,3 L187.790698,3 L187.790698,7.11666667 L183.629131,7.11666667 L183.629131,22 L179.100367,22 Z M194.186047,22 L194.186047,3 L198.815407,3 L198.815407,10.4733333 L206.216085,10.4733333 L206.216085,3 L210.813953,3 L210.813953,22 L206.216085,22 L206.216085,14.495 L198.815407,14.495 L198.815407,22 L194.186047,22 Z M217.209302,22 L217.209302,3 L229.655153,3 L229.655153,7.11666667 L221.817715,7.11666667 L221.817715,10.5366667 L229.059508,10.5366667 L229.059508,14.59 L221.817715,14.59 L221.817715,18.01 L230,18.01 L230,22 L217.209302,22 Z" id="THE"></path>
                <polygon id="F" points="241 35 241 2 262 2 262 9.15 248.976744 9.15 248.976744 16.19 260.968992 16.19 260.968992 23.23 248.976744 23.23 248.976744 35"></polygon>
                <path d="M270,35 L270,2 L282.964876,2 C289.628099,2 293.966942,6.29 293.966942,12.505 C293.966942,18.28 291.229339,21.525 286.632231,22.735 L295,35 L285.495868,35 L277.592975,22.68 L277.592975,35 L270,35 Z M278.75,15.9615385 L284.718208,15.9615385 C286.387283,15.9615385 287.5,14.3632479 287.5,12.7179487 C287.5,11.0726496 286.184971,9.61538462 284.515896,9.61538462 L278.75,9.61538462 L278.75,15.9615385 Z" id="R"></path>
                <polygon id="Y" points="338.916084 35 338.916084 19.05 327 2 336.286713 2 343 11.9 349.769231 2 359 2 347.083916 19.05 347.083916 35"></polygon>
                <path d="M229,32.8139291 C229,33.2826309 229,33.6259593 229,34.4056524 C229,34.85967 228.784387,34.8915721 228.428669,34.8915721 C227.870791,34.8915721 227.585295,34.9321755 225.602027,34.85967 C223.693765,34.7899067 221.672764,34.6722455 219.727356,34.2485464 C217.218238,33.7027222 214.801127,32.4565483 212.518448,30.2742487 C210.683873,28.5206328 208.725472,28.1687132 206.703436,29.2533829 C204.625453,30.3679608 202.507962,31.2357964 200.332669,30.7881707 C199.098394,30.5344498 197.86571,30.0504358 196.6667,29.4333304 C194.273983,28.2021107 191.985736,28.4782629 189.772791,30.6281621 C187.963935,32.3857656 184.579273,34.5939696 180.171546,34.8895782 C176.414246,35.1415651 175.986391,34.8821011 175.568313,34.8915721 C175.150236,34.901043 174.991346,34.4703653 175.000361,33.6857742 C175.008581,32.9550179 175.142875,32.453059 175.544185,32.4460805 C175.945494,32.4391019 178.240446,32.453059 179.484541,32.4286341 C182.00851,32.3790816 187.395188,30.1177292 189.834306,27.748005 C191.275398,26.3478039 192.887512,25.8209217 194.504929,26.05271 C195.47591,26.1912846 196.433368,26.7749924 197.386053,27.2365752 C199.149568,28.0899551 200.937742,28.5884247 202.742885,28.0450928 C204.469014,27.525189 206.159878,26.5142929 207.891575,26.167358 C209.041532,25.937065 210.284822,26.1753335 211.398718,26.7774847 C212.966022,27.624883 214.439462,29.0694477 215.978395,30.128197 C216.774907,30.6765136 217.617024,31.0488703 218.455429,31.3110652 C219.474137,31.6300858 221.033179,32.1129132 221.960422,32.2349699 C223.469693,32.4336413 226.976064,32.4286341 228.428669,32.4286341 C228.945001,32.4286341 229,32.4822777 229,32.8139291 Z" id="Fill-47-Copy"></path>
                <polygon id="V" points="121.023723 36 107 3 115.096715 3 121.5 18.3822581 127.903285 3 136 3 121.976277 36"></polygon>
                <path d="M297,35 L313.699346,0 L315.186275,0 L332,35 L322.964052,35 L321.248366,31.5 L307.694444,31.5 L306.035948,35 L297,35 Z M309.962963,24.6296296 L317.740741,24.6296296 L313.934594,16.8518519 L313.824271,16.8518519 L309.962963,24.6296296 Z" id="A"></path>
                <path d="M0,34 L15.745098,1 L17.1470588,1 L33,34 L24.4803922,34 L22.8627451,30.7 L10.0833333,30.7 L8.51960784,34 L0,34 Z M12.5637255,25.1112903 L20.1666667,25.1112903 L16.4460784,17.0209677 L16.3382353,17.0209677 L12.5637255,25.1112903 Z" id="A"></path>
            </g>
        </g>
    </g>
</svg>