<?xml version="1.0" encoding="UTF-8"?>
<svg width="200px" height="200px" viewBox="0 0 200 200" version="1.1" xmlns="http://www.w3.org/2000/svg" xmlns:xlink="http://www.w3.org/1999/xlink">
    <!-- Generator: Sketch 54.1 (76490) - https://sketchapp.com -->
    <title>atf-wrapped</title>
    <desc>Created with Sketch.</desc>
    <g id="Page-1" stroke="none" stroke-width="1" fill="none" fill-rule="evenodd">
        <g id="atf-wrapped">
            <rect id="Rectangle" stroke="#979797" stroke-width="0.01" x="0.005" y="0.005" width="199.99" height="199.99"></rect>
            <g id="AboveTheFray-1" transform="translate(18.000000, 65.000000)" fill="#FF6FCD" fill-rule="nonzero">
                <path d="M39,33 L39,1 L52.0516854,1 C57.4449438,1 61.7595506,4.94666667 61.7595506,9.96 C61.7595506,12.9466667 60.5191011,14.8133333 58.2539326,16.52 L58.2539326,16.6266667 C61.5977528,18.9733333 63,21.2133333 63,24.52 C63,28.9466667 59.4404494,33 53.2921348,33 L39,33 Z M46.8741573,13.7466667 L50.6494382,13.7466667 C52.4831461,13.7466667 53.7775281,12.52 53.7775281,10.76 C53.7775281,9.10666667 52.4831461,7.82666667 50.6494382,7.82666667 L46.8741573,7.82666667 L46.8741573,13.7466667 Z M46.8741573,26.0133333 L51.6741573,26.0133333 C53.5078652,26.0133333 54.694382,24.9466667 54.694382,23.24 C54.694382,21.6933333 53.5078652,20.4133333 51.6741573,20.4133333 L46.8741573,20.4133333 L46.8741573,26.0133333 Z" id="B"></path>
                <path d="M69,17 C69,7.490625 76.2058824,0 86.5,0 C96.7399381,0 104,7.490625 104,17 C104,26.509375 96.7399381,34 86.5,34 C76.2058824,34 69,26.509375 69,17 Z M77.0727554,17 C77.0727554,22.365625 80.7027864,26.615625 86.5,26.615625 C92.2430341,26.615625 95.9272446,22.365625 95.9272446,17 C95.9272446,11.634375 92.2430341,7.384375 86.5,7.384375 C80.7027864,7.384375 77.0727554,11.634375 77.0727554,17 Z" id="O"></path>
                <polygon id="E" points="142 33 142 1 163.406863 1 163.406863 7.93333333 149.926471 7.93333333 149.926471 13.6933333 162.382353 13.6933333 162.382353 20.52 149.926471 20.52 149.926471 26.28 164 26.28 164 33"></polygon>
                <path d="M3.85008288,58 L3.85008288,44.6833333 L0,44.6833333 L0,41 L12.0099602,41 L12.0099602,44.6833333 L8.10241329,44.6833333 L8.10241329,58 L3.85008288,58 Z M17.1561744,58 L17.1561744,41 L21.3797728,41 L21.3797728,47.6866667 L28.1317839,47.6866667 L28.1317839,41 L32.3266504,41 L32.3266504,58 L28.1317839,58 L28.1317839,51.285 L21.3797728,51.285 L21.3797728,58 L17.1561744,58 Z M38.2773594,58 L38.2773594,41 L49.6839484,41 L49.6839484,44.6833333 L42.5009579,44.6833333 L42.5009579,47.7433333 L49.1380411,47.7433333 L49.1380411,51.37 L42.5009579,51.37 L42.5009579,54.43 L50,54.43 L50,58 L38.2773594,58 Z" id="THE"></path>
                <polygon id="F" points="58 71 58 41 77 41 77 47.5 65.2170543 47.5 65.2170543 53.9 76.0671835 53.9 76.0671835 60.3 65.2170543 60.3 65.2170543 71"></polygon>
                <path d="M83,71 L83,41 L95.446281,41 C101.842975,41 106.008264,44.9 106.008264,50.55 C106.008264,55.8 103.380165,58.75 98.9669421,59.85 L107,71 L97.8760331,71 L90.2892562,59.8 L90.2892562,71 L83,71 Z M90.2892562,54 L96.1404959,54 C97.7768595,54 98.8677686,52.3 98.8677686,50.55 C98.8677686,48.8 97.5785124,47.25 95.9421488,47.25 L90.2892562,47.25 L90.2892562,54 Z" id="R"></path>
                <polygon id="Y" points="145.798951 71 145.798951 56.5 135 41 143.416084 41 149.5 50 155.634615 41 164 41 153.201049 56.5 153.201049 71"></polygon>
                <path d="M49,68.0568259 C49,68.4734497 49,68.7786305 49,69.471691 C49,69.8752622 48.8043515,69.9036196 48.4815697,69.9036196 C47.9753475,69.9036196 47.7162858,69.9397115 45.9166539,69.8752622 C44.1850835,69.8132504 42.3512115,69.7086627 40.5859338,69.3320413 C38.3091418,68.8468642 36.1158378,67.739154 34.0445177,65.7993322 C32.3798105,64.2405625 30.6027436,63.9277451 28.7679326,64.8918959 C26.8823552,65.8826319 24.9609285,66.6540412 22.9870512,66.2561517 C21.867061,66.030622 20.7485144,65.6003874 19.660524,65.0518493 C17.4893552,63.9574317 15.4129825,64.2029003 13.4049401,66.1139218 C11.763571,67.6762361 8.69230333,69.6390841 4.69269895,69.9018473 C1.28329718,70.1258357 0.895058284,69.895201 0.515691718,69.9036196 C0.136325153,69.9120382 -0.00785254913,69.5292136 0.000327829056,68.8317993 C0.00778640542,68.1822381 0.129645638,67.7360525 0.493797169,67.7298493 C0.8579487,67.7236461 2.94040447,67.7360525 4.06930593,67.7143414 C6.35957395,67.6702947 11.2474853,65.6602037 13.4607591,63.5537822 C14.7684167,62.3091591 16.2312609,61.8408193 17.6989172,62.0468534 C18.5799922,62.1700308 19.4487966,62.6888821 20.3132702,63.0991779 C21.9134967,63.8577379 23.536099,64.3008219 25.1740996,63.8178603 C26.7404015,63.3557236 28.2747038,62.4571492 29.8460585,62.1487627 C30.889538,61.9440578 32.0177085,62.155852 33.0284665,62.6910975 C34.4506495,63.4443404 35.7876602,64.728398 37.1840991,65.6695085 C37.9068597,66.156901 38.6710034,66.4878847 39.4317785,66.7209469 C40.3561614,67.0045208 41.7708474,67.4337006 42.6122344,67.5421955 C43.9817584,67.7187923 47.1634655,67.7143414 48.4815697,67.7143414 C48.9500939,67.7143414 49,67.7620246 49,68.0568259 Z" id="Fill-47-Copy"></path>
                <polygon id="V" points="121.023723 34 107 1 115.096715 1 121.5 16.3822581 127.903285 1 136 1 121.976277 34"></polygon>
                <path d="M109,71 L123.79085,40 L125.107843,40 L140,71 L131.996732,71 L130.477124,67.9 L118.472222,67.9 L117.003268,71 L109,71 Z M120.802288,62.65 L127.944444,62.65 L124.449346,55.05 L124.348039,55.05 L120.802288,62.65 Z" id="A"></path>
                <path d="M0,33 L15.745098,0 L17.1470588,0 L33,33 L24.4803922,33 L22.8627451,29.7 L10.0833333,29.7 L8.51960784,33 L0,33 Z M12.5637255,24.1112903 L20.1666667,24.1112903 L16.4460784,16.0209677 L16.3382353,16.0209677 L12.5637255,24.1112903 Z" id="A"></path>
            </g>
        </g>
    </g>
</svg>